<svg width="105" height="90" viewBox="0 0 55 40" fill="none" xmlns="http://www.w3.org/2000/svg">
<path d="M7.51461 30.1343C7.61459 30.0344 9.31428 36.8331 18.6126 35.6333C16.8129 31.2341 11.014 28.3347 9.71421 28.2347C10.0142 28.0347 11.6139 26.835 11.9138 26.635C11.5139 27.8348 16.9129 32.8338 21.1121 31.4341C20.0123 28.0347 15.4132 25.1353 14.2134 25.1353L15.7131 24.2354C15.4132 24.8353 19.4124 28.7346 23.6117 28.4347C23.6117 26.435 19.1125 22.6357 18.2126 22.9357C18.6126 22.7357 19.3124 22.3358 19.5124 22.2358C20.1123 23.6355 24.0116 26.535 26.7111 26.1351C24.5115 21.4359 21.712 21.236 21.712 21.236C22.4119 20.8361 22.9118 20.6361 23.0118 20.6361C23.0118 21.8359 26.911 24.7353 29.5106 24.0355C29.0107 21.9359 26.8111 19.9362 24.8114 19.7363C25.3113 19.5363 25.8112 19.2363 26.2112 19.0364C26.0112 19.4363 29.2106 22.1358 32.3101 21.9359C30.8103 18.3365 28.8107 18.2365 28.0108 18.1366C28.4108 17.9366 28.9107 17.7366 29.3106 17.4367C29.5106 17.9366 31.2103 20.2362 35.2095 19.6363C34.2097 17.4367 32.0101 16.7368 30.9103 16.6368L32.3101 15.937C32.61 16.2369 33.6098 18.4365 37.7091 17.6366C36.8092 15.537 34.9096 15.0371 34.2097 14.9371C34.5097 14.7372 35.0096 14.5372 35.2095 14.3372C35.5095 14.8372 37.6091 16.3369 39.8087 15.737C39.4087 14.4372 37.809 13.7374 36.3093 13.6374L37.5091 12.8375C37.7091 13.3374 38.9088 14.5372 41.8083 13.7374C40.9085 11.9377 38.5089 12.1377 38.5089 12.1377C39.1088 11.7377 39.2088 11.5378 39.7087 11.2378C39.7087 11.2378 41.1084 13.1375 43.408 11.8377C42.7081 10.7379 41.7083 10.238 40.6085 10.5379C40.9085 10.238 41.2084 10.038 41.4084 9.73809C41.3084 10.038 43.1081 10.9379 44.7078 9.73809C43.9079 9.03822 43.1081 8.83826 42.2082 8.83826C42.6082 8.43833 42.7081 8.43833 42.9081 8.13839C42.9081 8.13839 44.3078 9.23818 45.7076 7.83844C44.6078 7.03859 43.308 7.5385 43.308 7.5385L43.8079 6.73864C44.0079 7.03859 45.6076 7.33853 46.1075 6.33872C45.7076 5.93879 44.3078 6.03877 44.1079 6.13875C44.1079 6.13875 44.3079 5.83881 44.4078 5.63885C47.3073 5.93879 46.3075 2.6394 45.6076 0.739746C34.9096 17.2367 20.5122 5.53886 3.01544 15.937C2.21559 18.0366 1.91564 20.3361 2.11561 22.6357C2.11561 22.8357 2.11561 23.0356 2.21559 23.5356C2.21559 23.7355 2.41555 24.9353 2.91546 26.335C3.2154 27.3349 3.61533 28.0347 4.11524 29.0345C4.41518 28.8346 4.61515 28.6346 4.81511 28.4347C4.01526 27.3349 1.41573 20.5361 4.71513 16.6368C7.81456 16.5368 8.21448 25.5352 7.61459 26.435C7.61459 26.435 9.11432 25.4352 9.61423 25.1353C8.91436 24.8353 6.61478 17.1367 10.5141 13.9373C10.5141 13.9373 14.0134 15.2371 12.5137 23.4356C13.1136 23.0356 13.9134 22.7357 14.8133 22.2358C14.4133 21.4359 12.0138 15.637 15.8131 12.5376C17.9127 13.3374 17.8127 19.7363 16.9129 21.136C17.6128 20.8361 18.3126 20.4361 18.9125 20.1362C17.7127 19.5363 17.8127 13.5374 19.8124 11.9377C22.1119 14.0373 21.512 17.6366 20.9121 19.2363L22.6118 18.5365C21.2121 15.937 21.912 12.9375 23.3117 11.6377C24.4115 12.3376 24.7115 14.4372 24.2115 17.8366C24.7115 17.6366 25.0114 17.5367 25.4113 17.3367C25.1114 16.7368 24.3115 13.3374 26.3112 11.4378C28.1108 12.3376 27.5109 16.1369 27.311 16.5368L28.3108 16.1369C27.9109 15.3371 27.7109 12.5376 29.3106 11.1378C30.0105 11.6377 30.6104 12.9375 30.0105 15.3371C30.4104 15.1371 30.8103 14.9371 31.2103 14.8372C30.6104 14.2373 31.0103 11.7377 31.9101 10.7379C32.9099 11.1378 33.3099 13.3374 33.0099 14.0373L34.0097 13.5374C33.7098 13.0375 33.6098 10.6379 34.6096 10.038C35.6094 10.7379 35.5095 12.4376 35.4095 12.8375C35.7094 12.6376 36.5093 12.2376 36.5093 12.2376C36.0094 11.7377 35.7094 10.238 36.9092 9.23818C37.909 9.43815 37.909 11.3378 37.809 11.4378C38.209 11.1378 38.8089 10.7379 39.1088 10.5379C38.209 10.338 38.3089 8.83826 38.8089 8.23837C39.4087 8.33835 39.8087 8.73828 40.0086 9.83807C40.2086 9.63811 40.8085 9.1382 41.0085 8.93824C40.4086 8.93824 39.8087 7.73846 40.6085 6.93861C40.9085 7.03859 41.6083 7.33853 41.7083 8.23837C42.1083 8.13839 42.5082 7.5385 42.5082 7.43851C42.1083 7.33853 41.7083 6.13875 42.1082 5.63885C42.6082 5.63885 43.1081 6.33872 43.208 6.63866L43.708 5.93879C43.408 5.73883 42.8081 5.03896 43.308 4.43907C43.9079 4.43907 44.1079 4.93897 44.2079 5.3389C38.309 16.9368 14.3134 18.9364 1.81566 32.9338C1.81566 32.9338 0.5159 34.3336 0.5159 34.9335V39.6326H0.815845C1.41573 37.9329 3.41537 33.4337 7.51461 30.1343ZM52.4064 0.839728C51.3066 0.839728 50.5067 1.73956 50.5067 2.83936C50.5067 3.93916 51.4065 4.73901 52.5063 4.73901C53.6061 4.73901 54.406 3.83918 54.406 2.73938C54.406 1.63958 53.5062 0.739746 52.4064 0.839728ZM54.206 2.6394C54.206 3.63921 53.4062 4.43907 52.5063 4.43907C51.6065 4.43907 50.8067 3.73919 50.8067 2.73938C50.8067 1.83954 51.5065 1.03969 52.5063 1.03969C53.4062 1.03969 54.106 1.73956 54.206 2.6394Z" fill="white"/>
</svg>
