<svg width="136" height="52" viewBox="0 0 136 52" fill="none" xmlns="http://www.w3.org/2000/svg">
<path d="M64.0873 5.13853L64.2873 4.13871L63.5874 3.43884L61.6877 4.53864L60.488 4.03873L59.6881 1.93911L58.7883 2.0391L58.8883 3.03891L58.6883 3.33886L58.0884 2.33904L58.1884 1.43921L57.7885 -0.060518L56.3887 -1.36028L55.2889 -1.2603L54.4891 -2.56006L53.6892 -2.06015L54.789 -0.860371V-0.460445L57.7885 4.03873L57.6885 5.63843L57.1886 7.23814L55.9888 8.13797L56.0888 8.83785L57.8884 9.73768L58.2884 10.5375L57.2886 12.5372L57.4885 13.0371H58.1884L58.5883 13.437L59.4882 12.9371L60.8879 10.6375L61.6877 8.73787L61.3878 8.33794L61.7877 7.33812H62.6876L62.7876 7.83803L63.4874 7.4381L63.3874 6.43829L63.8873 6.13834L64.0873 5.13853ZM48.7901 1.93911C48.7901 1.33922 48.9901 0.939298 49.49 0.939298C49.9899 0.939298 50.1899 1.33922 50.1899 1.93911V5.63843C50.1899 6.23832 49.9899 6.63825 49.49 6.63825C48.9901 6.63825 48.7901 6.23832 48.7901 5.63843V1.93911ZM45.2908 0.0394635V7.33812L47.5903 9.6377H51.3896L53.6892 7.33812V0.0394635L51.3896 -2.26011H47.5903L45.2908 0.0394635ZM50.8897 24.235L51.4896 24.135V23.4352L52.1895 21.7355L52.8894 19.7358L53.7892 19.136L54.689 19.2359L55.089 19.136L55.2889 18.636L54.689 18.0362L54.889 17.6362L55.7888 16.5364L55.8888 15.7366L56.3887 15.4366L57.0886 14.1369L56.8886 13.7369L56.9886 13.237L56.8886 13.0371L56.9886 12.5372L56.2887 12.2372L55.1889 12.9371V12.8371L55.2889 12.3372L54.989 12.1372L54.689 12.2372L54.5891 12.1372L54.789 11.7373L54.889 11.5374L54.789 11.2374L53.4893 12.2372L52.9893 14.2369L52.1895 14.6368L51.7896 16.5364L48.4902 19.6359L47.4904 20.0358L45.9906 22.1354L44.9908 24.435L45.4907 25.2348L46.6905 24.9349L46.9905 25.3348H47.5903V25.7347L48.7901 25.8347L49.8899 25.2348L50.8897 24.235ZM63.0875 21.4355C63.0875 22.0354 62.8875 22.4353 62.3876 22.4353C61.8877 22.4353 61.6877 22.0354 61.6877 21.4355V17.7362C61.6877 17.1363 61.8877 16.7364 62.3876 16.7364C62.8875 16.7364 63.0875 17.1363 63.0875 17.7362V21.4355ZM66.5869 23.2352V15.9365L64.2873 13.637H60.488L58.1884 15.9365V23.2352L60.488 25.5348H64.2873L66.5869 23.2352ZM46.9905 25.9347L46.4905 26.0347L46.6905 26.7346L45.8906 27.7344L46.1906 27.8344L47.6903 27.4344L47.9903 26.8345L47.7903 26.6346L46.9905 25.9347ZM2.99854 25.5348H9.1974V-2.16013H5.99799L3.89837 -0.060518H0.399017V5.33849H2.99854V25.5348ZM15.4962 -2.16013L11.597 1.73915V21.6355L15.4962 25.5348H22.395L26.2943 21.6355V1.73915L22.395 -2.16013H15.4962ZM20.0954 19.4359C20.0954 20.0358 19.6955 20.5357 19.0956 20.5357H18.6957C18.1957 20.5357 17.6958 20.1358 17.6958 19.4359V3.83877C17.6958 3.23888 18.0958 2.73897 18.6957 2.73897H19.0956C19.5955 2.73897 20.0954 3.13889 20.0954 3.83877V19.4359ZM39.4918 25.5348L43.3911 21.6355V1.73915L39.4918 -2.16013H32.5931L28.6938 1.73915V21.6355L32.5931 25.5348H39.4918ZM34.7927 3.83877C34.7927 3.23888 35.1926 2.73897 35.7925 2.73897H36.1924C36.6923 2.73897 37.1922 3.13889 37.1922 3.83877V19.4359C37.1922 20.0358 36.7923 20.5357 36.1924 20.5357H35.7925C35.2926 20.5357 34.7927 20.1358 34.7927 19.4359V3.83877ZM73.6855 -2.16013V25.5348H79.8844V15.7366H84.3836L88.2829 11.8373V1.63917L84.3836 -2.26011H73.6855V-2.16013ZM82.084 9.73768C82.084 10.3376 81.6841 10.7375 81.0842 10.7375H79.7844V2.73897H81.0842C81.5841 2.73897 82.084 3.13889 82.084 3.73878V9.73768ZM90.1825 -2.16013V21.6355L94.0818 25.5348H100.981L104.88 21.6355V-2.16013H98.6809V19.4359C98.6809 20.0358 98.281 20.5357 97.6811 20.5357H97.2812C96.7813 20.5357 96.2814 20.1358 96.2814 19.4359V-2.16013H90.1825ZM121.877 1.63917L117.977 -2.26011H107.279V25.4348H113.478V14.8367H114.778C115.278 14.8367 115.778 15.2367 115.778 15.8366V22.7353L116.078 25.4348H122.277L121.977 22.4353V14.8367L119.277 12.1372L121.977 9.43774V1.63917H121.877ZM115.678 8.63788C115.678 9.23777 115.278 9.6377 114.678 9.6377H113.478V2.73897H114.778C115.278 2.73897 115.778 3.13889 115.778 3.73878V8.63788H115.678ZM124.176 25.5348H135.874V20.2358H130.375V14.1369H135.374V8.83785H130.375V3.13889H135.874V-2.16013H124.176V25.5348ZM9.89727 38.6324H9.6973L7.59769 29.734H2.99854V51.73H7.59769V42.2317H7.79766L10.2972 51.73H14.4964V29.734H9.89727V38.6324ZM16.3961 51.73H25.6944V47.5307H21.2952V42.7316H25.2944V38.5324H21.2952V33.9332H25.6944V29.734H16.3961V51.73ZM49.69 33.9332H54.3891L49.7899 47.9307V51.73H59.7881V47.5307H55.1889L59.7881 33.7333V29.734H49.69V33.9332ZM61.2878 51.73H70.5861V47.5307H66.2869V42.7316H70.1862V38.5324H66.2869V33.9332H70.5861V29.734H61.2878V51.73ZM86.2832 29.734V51.73H95.0816V47.5307H91.0824V29.734H86.2832ZM117.677 38.6324H117.478L115.378 29.734H110.779V51.73H115.378V42.2317H115.578L118.077 51.73H122.277V29.734H117.677V38.6324ZM124.176 51.73H132.675L135.774 48.6305V32.8334L132.675 29.734H124.176V51.73ZM129.075 33.6333H130.075C130.475 33.6333 130.875 33.9332 130.875 34.4331V47.0308C130.875 47.5307 130.575 47.8307 130.075 47.8307H129.075V33.6333ZM38.792 39.9321H38.592L37.5922 29.734H33.9928L32.993 39.9321H32.6931L31.5933 29.734H26.9941L29.7936 51.73H34.1928L35.4926 42.2317H35.6925L36.9923 51.73H41.3915L44.191 29.734H39.8918L38.792 39.9321ZM75.2853 29.734L71.7859 51.73H76.485L76.8849 48.1306H79.7844L80.1843 51.73H85.0835L81.5841 29.734H75.2853ZM77.3849 44.2313L78.2847 37.0327H78.4847L79.3845 44.2313H77.3849ZM99.6808 29.734L96.1814 51.73H100.881L101.28 48.1306H104.18L104.58 51.73H109.479L105.98 29.734H99.6808ZM101.78 44.2313L102.68 37.0327H102.88L103.78 44.2313H101.78Z" fill="white"/>
</svg>
